<?xml version="1.0" encoding="UTF-8" standalone="no"?>
<svg
   xmlns:dc="http://purl.org/dc/elements/1.1/"
   xmlns:cc="http://creativecommons.org/ns#"
   xmlns:rdf="http://www.w3.org/1999/02/22-rdf-syntax-ns#"
   xmlns:svg="http://www.w3.org/2000/svg"
   xmlns="http://www.w3.org/2000/svg"
   id="svg8"
   version="1.1"
   viewBox="0 0 5.2916665 5.2916668"
   height="20"
   width="20">
  <defs
     id="defs2" />
  <metadata
     id="metadata5">
    <rdf:RDF>
      <cc:Work
         rdf:about="">
        <dc:format>image/svg+xml</dc:format>
        <dc:type
           rdf:resource="http://purl.org/dc/dcmitype/StillImage" />
        <dc:title></dc:title>
      </cc:Work>
    </rdf:RDF>
  </metadata>
  <g
     transform="translate(0,-291.70832)"
     id="layer1">
    <path
       id="rect815"
       transform="matrix(0.26458333,0,0,0.26458333,0,291.70832)"
       d="M 10 4.7089844 C 9.7949136 4.7089844 9.5887884 4.7881647 9.4316406 4.9453125 L 9.2304688 5.1464844 L 0.23632812 14.140625 C -0.07796747 14.454921 -0.07796747 14.961095 0.23632812 15.275391 L 0.43945312 15.478516 C 0.75374872 15.792811 1.2599232 15.792811 1.5742188 15.478516 L 10 7.0507812 L 18.425781 15.478516 C 18.740077 15.792811 19.246251 15.792811 19.560547 15.478516 L 19.763672 15.275391 C 20.077967 14.961095 20.077967 14.454921 19.763672 14.140625 L 10.769531 5.1464844 L 10.568359 4.9453125 C 10.56796 4.9449134 10.566806 4.9457106 10.566406 4.9453125 C 10.488231 4.8671377 10.398734 4.8068641 10.302734 4.7675781 C 10.302134 4.7673338 10.301382 4.7678209 10.300781 4.7675781 C 10.20423 4.7282912 10.102543 4.7089844 10 4.7089844 z "
       style="opacity:1;fill:#ffffff;fill-opacity:1;fill-rule:evenodd;stroke:none;stroke-width:0.7310487;stroke-linecap:round;stroke-linejoin:round;stroke-miterlimit:4;stroke-dasharray:none;stroke-dashoffset:0;stroke-opacity:1;paint-order:stroke markers fill" />
  </g>
</svg>
