<?xml version="1.0" encoding="UTF-8" standalone="no"?>
<svg
   xmlns:dc="http://purl.org/dc/elements/1.1/"
   xmlns:cc="http://creativecommons.org/ns#"
   xmlns:rdf="http://www.w3.org/1999/02/22-rdf-syntax-ns#"
   xmlns:svg="http://www.w3.org/2000/svg"
   xmlns="http://www.w3.org/2000/svg"
   xmlns:sodipodi="http://sodipodi.sourceforge.net/DTD/sodipodi-0.dtd"
   xmlns:inkscape="http://www.inkscape.org/namespaces/inkscape"
   width="20"
   height="20"
   viewBox="0 0 5.2916665 5.2916668"
   version="1.1"
   id="svg8"
   sodipodi:docname="update.svg"
   inkscape:version="0.92.2 (5c3e80d, 2017-08-06)">
  <sodipodi:namedview
     pagecolor="#ffffff"
     bordercolor="#666666"
     borderopacity="1"
     objecttolerance="10"
     gridtolerance="10"
     guidetolerance="10"
     inkscape:pageopacity="0"
     inkscape:pageshadow="2"
     inkscape:window-width="1231"
     inkscape:window-height="849"
     id="namedview7"
     showgrid="false"
     inkscape:zoom="11.8"
     inkscape:cx="17.475968"
     inkscape:cy="12.552815"
     inkscape:window-x="1864"
     inkscape:window-y="195"
     inkscape:window-maximized="0"
     inkscape:current-layer="svg8" />
  <defs
     id="defs2" />
  <metadata
     id="metadata5">
    <rdf:RDF>
      <cc:Work
         rdf:about="">
        <dc:format>image/svg+xml</dc:format>
        <dc:type
           rdf:resource="http://purl.org/dc/dcmitype/StillImage" />
        <dc:title></dc:title>
      </cc:Work>
    </rdf:RDF>
  </metadata>
  <path
     style="color:#000000;font-style:normal;font-variant:normal;font-weight:normal;font-stretch:normal;font-size:medium;line-height:normal;font-family:sans-serif;font-variant-ligatures:normal;font-variant-position:normal;font-variant-caps:normal;font-variant-numeric:normal;font-variant-alternates:normal;font-feature-settings:normal;text-indent:0;text-align:start;text-decoration:none;text-decoration-line:none;text-decoration-style:solid;text-decoration-color:#000000;letter-spacing:normal;word-spacing:normal;text-transform:none;writing-mode:lr-tb;direction:ltr;text-orientation:mixed;dominant-baseline:auto;baseline-shift:baseline;text-anchor:start;white-space:normal;shape-padding:0;clip-rule:nonzero;display:inline;overflow:visible;visibility:visible;opacity:1;isolation:auto;mix-blend-mode:normal;color-interpolation:sRGB;color-interpolation-filters:linearRGB;solid-color:#000000;solid-opacity:1;vector-effect:none;fill:#ffffff;fill-opacity:1;fill-rule:evenodd;stroke:none;stroke-width:0.3631779;stroke-linecap:round;stroke-linejoin:round;stroke-miterlimit:4;stroke-dasharray:none;stroke-dashoffset:0;stroke-opacity:1;paint-order:stroke markers fill;color-rendering:auto;image-rendering:auto;shape-rendering:auto;text-rendering:auto;enable-background:accumulate"
     d="m 0.83021542,3.0416547 c -4.7036e-4,4.254e-4 -6.8925e-4,0.00114 -0.001153,0.00157 l -0.0171223,0.01417 0.003615,0.00437 c -0.0107432,0.012694 -0.0223109,0.024541 -0.0296857,0.040526 L 0.09474776,4.5998721 c -0.0073299,0.015897 -0.0088673,0.03239 -0.0116711,0.048943 -0.01406042,0.083017 0.0236689,0.1690487 0.10227977,0.2081484 0.0545405,0.027128 0.11339633,0.02301 0.16306012,-0.00175 L 1.9247802,4.4622063 c 0.013456,-0.00335 0.023973,-0.010936 0.035841,-0.01677 l 0.00904,0.010929 L 4.2856175,2.5397812 4.0543731,2.2603514 2.0182157,3.9453897 1.7815446,3.6594024 3.7936573,1.9942624 3.5621114,1.7144684 1.5499987,3.3796083 1.3232768,3.1056433 3.3594342,1.4206049 3.1278885,1.140811 0.83306721,3.0399085 c -8.5689e-4,7.465e-4 -0.002004,9.792e-4 -0.002855,0.00175 z M 3.5071406,0.82695782 3.5882418,0.92495862 3.7386864,1.1067519 4.4336253,1.9464983 4.5406549,2.0758303 4.6648696,2.2259281 5.0295491,1.9241346 C 5.2370357,1.7524275 5.2665292,1.4398474 5.0948228,1.2323611 L 4.5638951,0.5908021 C 4.3921884,0.38331594 4.0793066,0.35345737 3.87182,0.52516445 l -0.1828861,0.15134884 -0.083792,0.0693432 z m 0.5113398,0.048248 0.084885,-0.070248 c 0.057323,-0.047438 0.1336638,-0.040232 0.1810995,0.017088 L 4.8153927,1.4636048 c 0.047436,0.057321 0.040231,0.1336643 -0.017088,0.1810994 l -0.084885,0.070247 z M 1.0769484,3.3776282 1.6974187,4.1273887 0.60572732,4.3992088 Z"
     id="rect825"
     inkscape:connector-curvature="0" />
</svg>
