<?xml version="1.0" encoding="UTF-8" standalone="no"?>
<svg
   xmlns:dc="http://purl.org/dc/elements/1.1/"
   xmlns:cc="http://creativecommons.org/ns#"
   xmlns:rdf="http://www.w3.org/1999/02/22-rdf-syntax-ns#"
   xmlns:svg="http://www.w3.org/2000/svg"
   xmlns="http://www.w3.org/2000/svg"
   xmlns:sodipodi="http://sodipodi.sourceforge.net/DTD/sodipodi-0.dtd"
   xmlns:inkscape="http://www.inkscape.org/namespaces/inkscape"
   width="20"
   height="20"
   viewBox="0 0 5.2916665 5.2916668"
   version="1.1"
   id="svg8"
   sodipodi:docname="delete.svg"
   inkscape:version="0.92.2 (5c3e80d, 2017-08-06)">
  <sodipodi:namedview
     pagecolor="#ffffff"
     bordercolor="#666666"
     borderopacity="1"
     objecttolerance="10"
     gridtolerance="10"
     guidetolerance="10"
     inkscape:pageopacity="0"
     inkscape:pageshadow="2"
     inkscape:window-width="1231"
     inkscape:window-height="849"
     id="namedview7"
     showgrid="false"
     inkscape:zoom="11.8"
     inkscape:cx="19.957791"
     inkscape:cy="15.373989"
     inkscape:window-x="2070"
     inkscape:window-y="103"
     inkscape:window-maximized="0"
     inkscape:current-layer="svg8"
     showguides="true"
     inkscape:guide-bbox="true" />
  <defs
     id="defs2" />
  <metadata
     id="metadata5">
    <rdf:RDF>
      <cc:Work
         rdf:about="">
        <dc:format>image/svg+xml</dc:format>
        <dc:type
           rdf:resource="http://purl.org/dc/dcmitype/StillImage" />
        <dc:title></dc:title>
      </cc:Work>
    </rdf:RDF>
  </metadata>
  <path
     style="color:#000000;font-style:normal;font-variant:normal;font-weight:normal;font-stretch:normal;font-size:medium;line-height:normal;font-family:sans-serif;font-variant-ligatures:normal;font-variant-position:normal;font-variant-caps:normal;font-variant-numeric:normal;font-variant-alternates:normal;font-feature-settings:normal;text-indent:0;text-align:start;text-decoration:none;text-decoration-line:none;text-decoration-style:solid;text-decoration-color:#000000;letter-spacing:normal;word-spacing:normal;text-transform:none;writing-mode:lr-tb;direction:ltr;text-orientation:mixed;dominant-baseline:auto;baseline-shift:baseline;text-anchor:start;white-space:normal;shape-padding:0;clip-rule:nonzero;display:inline;overflow:visible;visibility:visible;opacity:1;isolation:auto;mix-blend-mode:normal;color-interpolation:sRGB;color-interpolation-filters:linearRGB;solid-color:#000000;solid-opacity:1;vector-effect:none;fill:#ffffff;fill-opacity:1;fill-rule:evenodd;stroke:none;stroke-width:0.39687499;stroke-linecap:round;stroke-linejoin:round;stroke-miterlimit:4;stroke-dasharray:none;stroke-dashoffset:0;stroke-opacity:1;paint-order:stroke markers fill;color-rendering:auto;image-rendering:auto;shape-rendering:auto;text-rendering:auto;enable-background:accumulate"
     d="m 1.8283121,0.08206043 c -0.053946,0 -0.097152,0.04372203 -0.097152,0.09766845 v 0.4981608 H 0.76222737 c -0.10993437,0 -0.19843749,0.0885031 -0.19843749,0.1984375 0,0.10993437 0.0885031,0.19843752 0.19843749,0.19843752 H 4.5134196 c 0.1099344,0 0.1984375,-0.0885031 0.1984375,-0.19843752 0,-0.10993437 -0.088503,-0.1984375 -0.1984375,-0.1984375 H 3.6147663 v -0.4981608 c 0,-0.0539464 -0.043722,-0.09766845 -0.097668,-0.09766845 H 3.4163288 2.030367 Z M 2.1280355,0.47893542 H 3.2178913 V 0.67788968 H 2.1280355 Z M 1.1467,1.3248786 c -0.1099343,0 -0.19843747,0.088503 -0.19843747,0.1984375 v 0.5617228 h -0.003101 v 2.5119915 c 0,0.2804091 0.23170407,0.5115965 0.51211347,0.5115965 h 2.466516 c 0.2804097,0 0.5115968,-0.2311874 0.5115968,-0.5115965 V 3.0177985 c 1.108e-4,-0.00274 0.00155,-0.00499 0.00155,-0.00775 V 1.5233161 c 0,-0.1099344 -0.088503,-0.1984375 -0.1984375,-0.1984375 -0.1099344,0 -0.1984375,0.088503 -0.1984375,0.1984375 v 0.5617228 h -0.00103 v 2.5119915 c 0,0.067405 -0.047833,0.1152382 -0.1152385,0.1152382 h -2.466516 c -0.067406,0 -0.1152385,-0.047833 -0.1152385,-0.1152382 V 3.02555 c 4.397e-4,-0.00542 0.0031,-0.00997 0.0031,-0.015503 V 1.5233161 c 0,-0.1099344 -0.088503,-0.1984375 -0.1984375,-0.1984375 z m 1.1435995,0.8294067 c -0.1099344,0 -0.1984375,0.088503 -0.1984375,0.1984375 v 1.4867309 c 0,0.1099344 0.088503,0.1984375 0.1984375,0.1984375 0.1099343,0 0.1984374,-0.088503 0.1984374,-0.1984375 V 2.3527228 c 0,-0.1099343 -0.088503,-0.1984375 -0.1984374,-0.1984375 z m 0.7622272,0 c -0.1099344,0 -0.1984375,0.088503 -0.1984375,0.1984375 v 1.4867309 c 0,0.1099344 0.088503,0.1984375 0.1984375,0.1984375 0.1099344,0 0.1984375,-0.088503 0.1984375,-0.1984375 V 2.3527228 c 0,-0.1099343 -0.088503,-0.1984375 -0.1984375,-0.1984375 z"
     id="rect921"
     inkscape:connector-curvature="0" />
</svg>
