<?xml version="1.0" encoding="UTF-8" standalone="no"?>
<svg
   xmlns:dc="http://purl.org/dc/elements/1.1/"
   xmlns:cc="http://creativecommons.org/ns#"
   xmlns:rdf="http://www.w3.org/1999/02/22-rdf-syntax-ns#"
   xmlns:svg="http://www.w3.org/2000/svg"
   xmlns="http://www.w3.org/2000/svg"
   xmlns:sodipodi="http://sodipodi.sourceforge.net/DTD/sodipodi-0.dtd"
   xmlns:inkscape="http://www.inkscape.org/namespaces/inkscape"
   height="40"
   version="1.1"
   viewBox="0 0 40 40"
   width="40"
   xml:space="preserve"
   id="svg20"
   sodipodi:docname="imdb.svg"
   inkscape:version="0.92.2 (5c3e80d, 2017-08-06)"><metadata
     id="metadata26"><rdf:RDF><cc:Work
         rdf:about=""><dc:format>image/svg+xml</dc:format><dc:type
           rdf:resource="http://purl.org/dc/dcmitype/StillImage" /><dc:title></dc:title></cc:Work></rdf:RDF></metadata><defs
     id="defs24" /><sodipodi:namedview
     pagecolor="#ffffff"
     bordercolor="#666666"
     borderopacity="1"
     objecttolerance="10"
     gridtolerance="10"
     guidetolerance="10"
     inkscape:pageopacity="0"
     inkscape:pageshadow="2"
     inkscape:window-width="1170"
     inkscape:window-height="841"
     id="namedview22"
     showgrid="false"
     inkscape:zoom="7.375"
     inkscape:cx="22.651307"
     inkscape:cy="18.245295"
     inkscape:window-x="1874"
     inkscape:window-y="63"
     inkscape:window-maximized="0"
     inkscape:current-layer="svg20" /><g
     id="_x31_71-imdb"
     transform="matrix(0.08695728,0,0,0.0869569,-2.2610629,-2.2609677)"><g
       id="g16"><g
         id="g6"><g
           id="g4"><path
             d="M 436.714,26.001 H 75.287 c -27.21,0 -49.285,22.075 -49.285,49.286 v 361.427 c 0,27.211 22.075,49.285 49.285,49.285 h 361.427 c 27.211,0 49.284,-22.074 49.284,-49.285 V 75.287 c 0,-27.211 -22.073,-49.286 -49.284,-49.286 z"
             style="fill:#fbbf14"
             id="path2"
             inkscape:connector-curvature="0" /></g></g><rect
         height="131.222"
         style="fill:#273238"
         width="33.882999"
         x="91.716003"
         y="190.287"
         id="rect8" /><path
         d="M 241.831,321.509 H 212.362 V 232.795 L 200.45,321.509 H 179.3 l -12.528,-86.763 v 86.763 H 136.996 V 190.287 h 43.947 c 3.39,20.329 6.16,40.968 8.934,61.504 l 7.803,-61.504 h 44.152 v 131.222 z"
         style="fill:#273238"
         id="path10"
         inkscape:connector-curvature="0" /><path
         d="m 330.544,236.8 c 0,-8.317 0.31,-17.25 -1.438,-25.055 -4.414,-23.102 -32.24,-21.458 -50.311,-21.458 h -25.261 v 131.222 c 88.408,0.103 77.01,6.16 77.01,-84.709 z m -43.022,61.913 v -85.94 c 12.219,0 10.576,6.47 10.576,16.428 v 50.622 c 10e-4,9.958 1.951,19.199 -10.576,18.89 z"
         style="fill:#273238"
         id="path12"
         inkscape:connector-curvature="0" /><path
         d="m 395.949,223.656 c -9.137,0 -15.298,2.773 -21.457,9.447 v -42.816 h -32.55 v 131.222 h 30.597 l 1.953,-8.317 c 5.852,6.982 12.218,10.063 21.457,10.063 20.331,0 22.795,-15.607 22.795,-31.729 v -36.963 c 0,-17.763 -0.821,-30.907 -22.795,-30.907 z m -16.427,80.706 c -1.642,0 -3.081,-0.823 -3.902,-2.465 -2.26,-5.237 -1.128,-45.281 -1.128,-45.897 0,-3.901 -1.132,-13.04 5.03,-13.04 7.496,0 6.364,7.496 6.364,13.04 v 33.574 c 10e-4,5.546 1.644,14.788 -6.364,14.788 z"
         style="fill:#273238"
         id="path14"
         inkscape:connector-curvature="0" /></g></g><g
     id="Layer_1"
     transform="translate(0,-472)" /></svg>