<?xml version="1.0" encoding="UTF-8" standalone="no"?>
<svg
   xmlns:dc="http://purl.org/dc/elements/1.1/"
   xmlns:cc="http://creativecommons.org/ns#"
   xmlns:rdf="http://www.w3.org/1999/02/22-rdf-syntax-ns#"
   xmlns:svg="http://www.w3.org/2000/svg"
   xmlns="http://www.w3.org/2000/svg"
   xmlns:sodipodi="http://sodipodi.sourceforge.net/DTD/sodipodi-0.dtd"
   xmlns:inkscape="http://www.inkscape.org/namespaces/inkscape"
   width="20"
   height="20"
   viewBox="0 0 5.2916665 5.2916668"
   version="1.1"
   id="svg8"
   sodipodi:docname="create.svg"
   inkscape:version="0.92.2 (5c3e80d, 2017-08-06)">
  <sodipodi:namedview
     pagecolor="#ffffff"
     bordercolor="#666666"
     borderopacity="1"
     objecttolerance="10"
     gridtolerance="10"
     guidetolerance="10"
     inkscape:pageopacity="0"
     inkscape:pageshadow="2"
     inkscape:window-width="1231"
     inkscape:window-height="849"
     id="namedview7"
     showgrid="false"
     inkscape:zoom="11.8"
     inkscape:cx="11.989283"
     inkscape:cy="15.878382"
     inkscape:window-x="2070"
     inkscape:window-y="103"
     inkscape:window-maximized="0"
     inkscape:current-layer="svg8"
     showguides="true"
     inkscape:guide-bbox="true" />
  <defs
     id="defs2" />
  <metadata
     id="metadata5">
    <rdf:RDF>
      <cc:Work
         rdf:about="">
        <dc:format>image/svg+xml</dc:format>
        <dc:type
           rdf:resource="http://purl.org/dc/dcmitype/StillImage" />
        <dc:title />
      </cc:Work>
    </rdf:RDF>
  </metadata>
  <path
     style="opacity:1;fill:#ffffff;fill-opacity:1;fill-rule:evenodd;stroke:none;stroke-width:1.23673892;stroke-linecap:round;stroke-linejoin:round;stroke-miterlimit:4;stroke-dasharray:none;stroke-dashoffset:0;stroke-opacity:1;paint-order:stroke markers fill"
     d="M 9.9414062 2.1191406 C 9.318971 2.1191406 8.8164062 2.6902296 8.8164062 3.4003906 L 8.8164062 9.0878906 L 3.1289062 9.0878906 C 2.4187452 9.0878906 1.8476562 9.5885022 1.8476562 10.210938 C 1.8476562 10.833373 2.4187452 11.335938 3.1289062 11.335938 L 8.8164062 11.335938 L 8.8164062 17.023438 C 8.8164063 17.733599 9.318971 18.304688 9.9414062 18.304688 C 10.563842 18.304688 11.064453 17.733599 11.064453 17.023438 L 11.064453 11.335938 L 16.751953 11.335938 C 17.462114 11.335937 18.033203 10.833373 18.033203 10.210938 C 18.033203 9.5885022 17.462114 9.0878906 16.751953 9.0878906 L 11.064453 9.0878906 L 11.064453 3.4003906 C 11.064453 2.6902296 10.563842 2.1191406 9.9414062 2.1191406 z "
     transform="scale(0.26458333)"
     id="rect812" />
</svg>
